<?xml version="1.0" encoding="UTF-8"?>
<svg id="Layer_2" data-name="Layer 2" xmlns="http://www.w3.org/2000/svg" viewBox="0 0 301.16 301.67">
  <defs>
    <style>
      .cls-1 {
        fill: #13292e;
        stroke-width: 0px;
      }
    </style>
  </defs>
  <g id="Layer_1-2" data-name="Layer 1">
    <path class="cls-1" d="M149.99,301.45c-2.67.82-3.94-.74-5.13-3.55-8.63-20.38-17.55-40.63-28.65-59.82-8.59-14.86-18.24-28.85-32.17-39.38-11.13-8.42-23.06-15.5-35.51-21.73-15.17-7.6-30.67-14.49-46.37-20.92C.63,155.42,0,154.7,0,152.98c.03-6.34-.04-6.33,5.87-8.8,21.04-8.8,41.76-18.25,61.55-29.69,20.22-11.69,35.61-27.89,47.21-48.04,11.65-20.24,21.24-41.45,30.32-62.9,1.09-2.58,2.26-3.72,5.21-3.53,4.68.3,4.67.09,6.52,4.45,8.64,20.38,17.77,40.51,28.56,59.88,13.38,24.02,32.27,42.04,56.56,54.77,15.04,7.88,30.32,15.2,45.93,21.86,3.89,1.66,7.77,3.36,11.71,4.91,1.31.52,1.68,1.21,1.7,2.58.06,6.58.09,6.56-6.05,9.17-19.15,8.13-37.98,16.9-56.3,26.81-24.75,13.39-43.1,32.75-56.19,57.53-9.54,18.05-18,36.56-25.96,55.33q-1.76,4.15-6.64,4.15Z"/>
  </g>
</svg>